GIL04_xslow1_RRA_states
nRows=4
nColumns=47

# SIMM Motion File Header:
name GIL04_xslow1_RRA_states
datacolumns 47
datarows 4
otherdata 1
range 1.49049999999994640000 1.49199999999994630000
endheader
time	pelvis_tx	pelvis_ty	pelvis_tz	pelvis_tilt	pelvis_list	pelvis_rotation	hip_flexion_r	hip_adduction_r	hip_rotation_r	knee_angle_r	ankle_angle_r	subtalar_angle_r	mtp_angle_r	hip_flexion_l	hip_adduction_l	hip_rotation_l	knee_angle_l	ankle_angle_l	subtalar_angle_l	mtp_angle_l	lumbar_extension	lumbar_bending	lumbar_rotation	pelvis_tx_u	pelvis_ty_u	pelvis_tz_u	pelvis_tilt_u	pelvis_list_u	pelvis_rotation_u	hip_flexion_r_u	hip_adduction_r_u	hip_rotation_r_u	knee_angle_r_u	ankle_angle_r_u	subtalar_angle_r_u	mtp_angle_r_u	hip_flexion_l_u	hip_adduction_l_u	hip_rotation_l_u	knee_angle_l_u	ankle_angle_l_u	subtalar_angle_l_u	mtp_angle_l_u	lumbar_extension_u	lumbar_bending_u	lumbar_rotation_u
      1.49049999999994640000	      1.36360640394624880000	      0.74835118918559140000	     -0.23467921287526178000	      0.31486202355004983000	     -0.03502335840916540700	     -2.16436191591777800000	     15.64414563161840600000	      0.20558533413358882000	      5.35004985095938320000	    -47.49112537911889800000	      2.02731416448360590000	      0.00000000000006109834	     -0.00000000000076514451	      0.60917814958407934000	      5.51127976025739840000	     -3.78971895736540090000	     -2.15279621259220200000	      1.17961322097456980000	      0.00000000000000923844	     -0.00000000000018001116	     -7.64521446831871910000	     -0.55189547517327853000	      9.37169293710862480000	      0.40275217754741804000	     -0.00768377297899058500	      0.01713719796214685200	      5.84249175210933290000	    -13.24228850281398500000	    -14.91350321725951700000	     85.77526724028324200000	     14.67667909798648800000	    -38.35797929739777600000	    107.44475376596273000000	     62.49540710565684500000	     -0.00000000000000699043	     -0.00000000000124578383	    -50.03911903233387200000	    -12.48360589908494400000	     -2.20510428841080450000	     11.13087705045543400000	     31.71747993890118500000	     -0.00000000000015539027	     -0.00000000000020909048	     -6.36969459054660540000	     14.03740859600214100000	     38.39019234741153500000
      1.49099999999994640000	      1.36380781082132010000	      0.74834727406748280000	     -0.23467057481773412000	      0.31778549742067397000	     -0.04163552380187175700	     -2.17181941701754690000	     15.68699235669247300000	      0.21290556173263339000	      5.33071460326441220000	    -47.43727958797402500000	      2.05849410589990490000	      0.00000000000006109480	     -0.00000000000076576784	      0.58412670752951024000	      5.50504518612792900000	     -3.79083557828924530000	     -2.14718545115732740000	      1.19545267025360950000	      0.00000000000000916054	     -0.00000000000018012322	     -7.64838591753224330000	     -0.54490013262787518000	      9.39084324830505320000	      0.40287535819185583000	     -0.00797678753311911560	      0.01741375369221244800	      5.85124405150949210000	    -13.20643746438908800000	    -14.91621041873201900000	     85.61147834887870500000	     14.60426242127684700000	    -38.98182174260529100000	    107.93855832155002000000	     62.22362590424989300000	     -0.00000000000000754450	     -0.00000000000124632646	    -50.16634438942360700000	    -12.45466040192489200000	     -2.26083787331369870000	     11.31193074146418800000	     31.64041679601070500000	     -0.00000000000015652834	     -0.00000000000024005614	     -6.31600005443317870000	     13.94447071362816500000	     38.20992097141561300000
      1.49149999999994630000	      1.36400927934024980000	      0.74834321231125789000	     -0.23466180040180401000	      0.32071310839646577000	     -0.04822985766623389500	     -2.17927784031191910000	     15.72975695465059300000	      0.22018962486318314000	      5.31106923324617950000	    -47.38318667364478600000	      2.08953705545061520000	      0.00000000000006109081	     -0.00000000000076639056	      0.55901211353501012000	      5.49882513136970270000	     -3.79197925636961890000	     -2.14148452637425370000	      1.21125367579101510000	      0.00000000000000908638	     -0.00000000000018025022	     -7.65153036542365150000	     -0.53795049792221805000	      9.40990175364248320000	      0.40299875353195164000	     -0.00827032251149549020	      0.01768262763947794900	      5.85904111529355910000	    -13.17095721876835100000	    -14.91720143473680500000	     85.44675775320391200000	     14.53201567636993900000	    -39.59843923903596900000	    108.43324518506445000000	     61.94743541987870800000	     -0.00000000000000805363	     -0.00000000000124457375	    -50.29171953905285600000	    -12.42552584436737800000	     -2.31333823615837810000	     11.49151700572217300000	     31.56358205276272200000	     -0.00000000000012998477	     -0.00000000000027973369	     -6.26168789625500380000	     13.85457216419439200000	     38.02302315646767300000
      1.49199999999994630000	      1.36421080961237460000	      0.74833900365811101000	     -0.23465289347557622000	      0.32364437918294131000	     -0.05480654197625249600	     -2.18673633341834870000	     15.77243895877245600000	      0.22743760421417947000	      5.29111738320599120000	    -47.32884619689627900000	      2.12044080571435690000	      0.00000000000006108658	     -0.00000000000076701257	      0.53383529934916907000	      5.49261969165854150000	     -3.79314837481966060000	     -2.13569418319385250000	      1.22701629302538050000	      0.00000000000000902066	     -0.00000000000018039019	     -7.65464750096980410000	     -0.53104505411893654000	      9.42886519068138010000	      0.40312237384952321000	     -0.00856437828134575150	      0.01794378836771433700	      5.86588205037933990000	    -13.13584273582527800000	    -14.91648225219746500000	     85.28110333227901700000	     14.45992983016375000000	    -40.20774087286829300000	    108.92880678596937000000	     61.66683164979691900000	     -0.00000000000000942117	     -0.00000000000124420775	    -50.41522637246520600000	    -12.39620306222522600000	     -2.36258842362400490000	     11.66960875758980800000	     31.48699175474349200000	     -0.00000000000012873065	     -0.00000000000029188572	     -6.20674905207809680000	     13.76771177771104600000	     37.82964089544353200000
